<svg width="160" height="73" viewBox="0 0 160 73" fill="none" xmlns="http://www.w3.org/2000/svg">
<path fill-rule="evenodd" clip-rule="evenodd" d="M45.7678 40.8459C45.6996 42.8978 44.2282 44.3491 42.2823 44.2935C40.2102 44.233 38.6555 42.6505 38.711 40.6617C38.7666 38.6073 40.3566 37.0652 42.3656 37.1081C44.415 37.151 45.8384 38.7183 45.7652 40.8459H45.7678Z" fill="#38B6FF"/>
<path fill-rule="evenodd" clip-rule="evenodd" d="M20.0647 40.8459C20.1328 42.8978 21.6042 44.3491 23.5501 44.2935C25.6222 44.233 27.1769 42.6505 27.1214 40.6617C27.0659 38.6073 25.4759 37.0652 23.4669 37.1081C21.4175 37.151 19.994 38.7183 20.0672 40.8459H20.0647Z" fill="#38B6FF"/>
<path fill-rule="evenodd" clip-rule="evenodd" d="M53.8467 10.2138C53.4631 9.97146 53.3217 9.84022 53.1577 9.78722C46.7748 7.79336 40.3869 5.81718 34.0066 3.8107C32.997 3.49269 32.0784 3.70217 31.1243 4.00252C25.3699 5.80456 19.6054 7.58641 13.8535 9.39854C13.3513 9.55755 12.6597 9.46669 12.3669 10.3223C16.5894 11.4303 20.837 12.3035 24.9156 13.6815C30.1981 15.4634 35.3493 15.8672 40.5787 13.6916C41.1769 13.4418 41.8482 13.3736 42.4843 13.2096C46.1994 12.2303 49.9145 11.2485 53.8467 10.2138ZM0 10.5318C0.31296 9.82255 0.878306 9.77965 1.36289 9.62822C11.4533 6.48095 21.5463 3.34883 31.6316 0.186428C32.568 -0.108865 33.4236 -0.0281013 34.3246 0.252048C44.1626 3.32107 54.0082 6.37243 63.8437 9.44902C64.4999 9.65345 65.2672 9.71907 65.9057 10.6176C63.5636 11.2586 61.3754 11.8745 59.1796 12.4575C56.3731 13.202 56.368 13.1894 56.363 16.165C56.363 18.5955 56.3807 21.021 56.358 23.4514C56.3352 25.7229 56.0929 25.8542 53.9578 25.0289C47.6557 22.5933 41.5176 22.669 35.6673 26.364C34.683 26.9874 33.8602 28.2316 32.8608 28.3578C31.7805 28.4891 31.1016 26.9722 30.0996 26.3438C24.4336 22.7927 18.4949 22.6287 12.3493 24.8244C9.38879 25.8844 9.38626 25.8895 9.38121 22.6463C9.37869 20.1527 9.32064 17.6566 9.40645 15.1656C9.45441 13.7446 8.93954 13.043 7.54132 12.6644C5.03259 11.9906 2.43806 11.5665 0.0075716 10.5318H0Z" fill="black"/>
<path fill-rule="evenodd" clip-rule="evenodd" d="M13.2074 38.7032C11.9934 48.6472 18.8482 58.1925 28.7065 60.2847C30.1274 60.5851 31.5382 60.7315 32.9163 60.7315C34.2968 60.7315 35.7052 60.5851 37.1261 60.2847C46.9868 58.1899 53.8391 48.6472 52.6277 38.7032C52.0901 34.3066 49.0438 30.8464 44.9955 30.3088C41.7902 29.8822 39.1628 31.3713 36.6617 33.1961C35.271 34.2132 34.524 35.3767 34.6628 37.1636C34.789 38.794 34.6906 40.4421 34.6906 42.0826C34.683 42.0826 34.6779 42.0826 34.6704 42.0826C34.6704 44.1825 34.683 46.2823 34.6653 48.3822C34.6552 49.4876 34.2211 50.3609 32.992 50.4063C32.9668 50.4063 32.944 50.4063 32.9163 50.4063C32.8936 50.4063 32.8683 50.4063 32.8431 50.4063C31.6114 50.3634 31.1799 49.4876 31.1698 48.3822C31.1496 46.2823 31.1647 44.1825 31.1647 42.0826C31.1571 42.0826 31.1496 42.0826 31.1445 42.0826C31.1445 40.4421 31.0436 38.794 31.1723 37.1636C31.3111 35.3767 30.564 34.2107 29.1709 33.1961C26.6722 31.3688 24.0449 29.8822 20.8396 30.3088C16.7913 30.8464 13.745 34.3066 13.2074 38.7032ZM32.9163 64.2573C27.7954 64.1942 22.6669 62.3644 17.4601 58.6972C19.8654 62.3871 22.0258 65.706 24.1862 69.0249C24.5471 69.5751 25.0822 69.7669 25.7056 69.7669C28.1083 69.7669 30.5136 69.7669 32.9163 69.7669C35.3215 69.7669 37.7268 69.7669 40.1295 69.7669C40.7529 69.7669 41.2905 69.5751 41.6463 69.0249C43.8068 65.706 45.9697 62.3871 48.3724 58.6972C43.1682 62.3644 38.0397 64.1942 32.9163 64.2573ZM21.9501 72.364C18.7675 67.508 15.3704 62.0212 12.1903 57.1652C8.38176 51.3503 4.59344 45.5201 0.777354 39.7077C-0.0630941 38.4281 0.121148 37.8173 1.75914 37.8476C3.66466 37.8854 5.57522 37.7466 7.46813 37.8829C9.15912 38.0066 9.86075 37.3579 10.3251 35.7401C11.5391 31.4975 14.1892 28.431 18.563 27.2498C23.4013 25.9425 27.6565 27.4215 31.3843 30.5132C31.9673 30.9978 32.4393 31.2577 32.9163 31.2754C33.3908 31.2577 33.8653 30.9978 34.4483 30.5132C38.1735 27.4215 42.4287 25.9425 47.267 27.2498C51.6434 28.431 54.2909 31.4975 55.5074 35.7401C55.9718 37.3579 56.6734 38.0066 58.3619 37.8829C60.2573 37.7466 62.1679 37.8854 64.0709 37.8476C65.7089 37.8148 65.8931 38.4281 65.0527 39.7077C61.2391 45.5201 57.4483 51.3503 53.6398 57.1652C50.4597 62.0212 47.0626 67.508 43.88 72.364C39.1957 73.2145 26.3921 73.2095 21.945 72.364H21.9501Z" fill="#38B6FF"/>
<path d="M79.7441 45.5591C79.6961 45.5793 79.6734 45.6096 79.6734 45.65C79.6734 45.6903 79.6961 45.7282 79.7441 45.761C81.319 46.5485 82.1064 47.9063 82.1064 49.8295C82.1064 51.4599 81.5537 52.6865 80.4508 53.5143C79.3453 54.3422 77.8966 54.7561 76.0996 54.7561H69.7193C69.4366 54.7561 69.2953 54.6147 69.2953 54.3321V37.5938C69.2953 37.3111 69.4366 37.1698 69.7193 37.1698H75.8977C79.8678 37.1698 81.8541 38.78 81.8541 41.9954C81.8541 43.6864 81.1499 44.8726 79.7441 45.5591ZM72.9902 40.2085C72.8893 40.2085 72.8388 40.259 72.8388 40.3599V44.2265C72.8388 44.3275 72.8893 44.3779 72.9902 44.3779H75.8977C76.6852 44.3779 77.2959 44.1962 77.7351 43.8328C78.1717 43.4643 78.3913 42.9595 78.3913 42.3185C78.3913 41.6673 78.1717 41.1524 77.7351 40.7739C77.2959 40.3978 76.6852 40.2085 75.8977 40.2085H72.9902ZM76.0996 51.6871C76.8719 51.6871 77.4751 51.4927 77.9067 51.1015C78.3434 50.7053 78.5629 50.1626 78.5629 49.4761C78.5629 48.7897 78.3434 48.2521 77.9067 47.8609C77.4751 47.4646 76.8669 47.2652 76.0794 47.2652H72.9902C72.8893 47.2652 72.8388 47.3157 72.8388 47.4167V51.5356C72.8388 51.6366 72.8893 51.6871 72.9902 51.6871H76.0996Z" fill="#38B6FF"/>
<path d="M97.207 54.958C95.9147 54.958 94.7765 54.7106 93.7947 54.2109C92.8179 53.7061 92.0583 52.9969 91.5131 52.0808C90.968 51.1671 90.6954 50.1172 90.6954 48.931V37.5938C90.6954 37.3111 90.8392 37.1698 91.1295 37.1698H93.8149C94.0975 37.1698 94.2389 37.3111 94.2389 37.5938V48.9512C94.2389 49.8396 94.5115 50.5564 95.0566 51.1015C95.6018 51.6467 96.3185 51.9193 97.207 51.9193C98.0954 51.9193 98.8121 51.6467 99.3573 51.1015C99.9024 50.5564 100.175 49.8396 100.175 48.9512V37.5938C100.175 37.3111 100.316 37.1698 100.599 37.1698H103.284C103.572 37.1698 103.719 37.3111 103.719 37.5938V48.931C103.719 50.1172 103.446 51.1671 102.901 52.0808C102.356 52.9969 101.591 53.7061 100.609 54.2109C99.6324 54.7106 98.4992 54.958 97.207 54.958Z" fill="#38B6FF"/>
<path d="M112.937 54.7561C112.654 54.7561 112.513 54.6147 112.513 54.3321V37.5938C112.513 37.3111 112.654 37.1698 112.937 37.1698H115.531C115.746 37.1698 115.91 37.2606 116.026 37.4423L122.316 47.9013C122.348 47.9618 122.386 47.9871 122.427 47.9719C122.467 47.9517 122.487 47.9113 122.487 47.8508V37.5938C122.487 37.3111 122.629 37.1698 122.911 37.1698H125.556C125.839 37.1698 125.98 37.3111 125.98 37.5938V54.3321C125.98 54.6147 125.839 54.7561 125.556 54.7561H122.992C122.79 54.7561 122.621 54.6551 122.487 54.4532L116.178 43.9034C116.142 43.8378 116.107 43.8126 116.067 43.8328C116.026 43.8479 116.006 43.8883 116.006 43.9539L116.026 54.3321C116.026 54.6147 115.885 54.7561 115.602 54.7561H112.937Z" fill="#38B6FF"/>
<path d="M135.352 54.7561C135.069 54.7561 134.928 54.6147 134.928 54.3321V37.5938C134.928 37.3111 135.069 37.1698 135.352 37.1698H141.51C142.767 37.1698 143.867 37.3919 144.811 37.8361C145.76 38.2803 146.492 38.9062 147.012 39.7138C147.53 40.5164 147.79 41.4402 147.79 42.4901V49.4257C147.79 50.4832 147.53 51.4145 147.012 52.2221C146.492 53.0247 145.76 53.6456 144.811 54.0898C143.867 54.534 142.767 54.7561 141.51 54.7561H135.352ZM138.471 51.5659C138.471 51.6669 138.522 51.7173 138.623 51.7173H141.631C142.404 51.7173 143.03 51.4599 143.509 50.94C143.986 50.4226 144.231 49.726 144.246 48.8502V43.0756C144.246 42.2024 144.006 41.5058 143.529 40.9859C143.05 40.4685 142.411 40.2085 141.611 40.2085H138.623C138.522 40.2085 138.471 40.259 138.471 40.3599V51.5659Z" fill="#38B6FF"/>
<path d="M156.762 54.7561C156.479 54.7561 156.338 54.6147 156.338 54.3321V37.5938C156.338 37.3111 156.479 37.1698 156.762 37.1698H159.447C159.735 37.1698 159.882 37.3111 159.882 37.5938V54.3321C159.882 54.6147 159.735 54.7561 159.447 54.7561H156.762Z" fill="#38B6FF"/>
<path d="M74.3409 70.4589C74.2437 70.4589 74.1804 70.4137 74.151 70.3232L73.8253 69.2377C73.8185 69.2015 73.7936 69.1834 73.7529 69.1834H70.9938C70.9508 69.1834 70.926 69.2015 70.9214 69.2377L70.5958 70.3232C70.5641 70.4137 70.5008 70.4589 70.4058 70.4589H69.4469C69.3858 70.4589 69.3429 70.4408 69.3203 70.4046C69.2954 70.3684 69.2886 70.3232 69.3022 70.2689L71.5637 63.2219C71.5863 63.1314 71.6497 63.0862 71.7537 63.0862H72.984C73.079 63.0862 73.1423 63.1314 73.174 63.2219L75.4355 70.2689C75.4468 70.2825 75.4536 70.3029 75.4536 70.3323C75.4536 70.4182 75.4016 70.4589 75.2998 70.4589H74.3409ZM71.2471 68.1521C71.2403 68.2019 71.2584 68.2245 71.3014 68.2245H73.4453C73.4861 68.2245 73.5041 68.2019 73.4996 68.1521L72.4141 64.5698C72.4073 64.5404 72.396 64.5246 72.3779 64.5246C72.3598 64.5246 72.344 64.5404 72.3327 64.5698L71.2471 68.1521Z" fill="black"/>
<path d="M82.3062 63.0681C82.7518 63.0681 83.143 63.1631 83.4823 63.3485C83.8192 63.5294 84.0793 63.7895 84.2602 64.1265C84.4457 64.4589 84.5407 64.8412 84.5407 65.2754C84.5407 65.7051 84.4434 66.085 84.2512 66.4152C84.0635 66.7409 83.7943 66.9942 83.4461 67.1751C83.1023 67.356 82.6998 67.4465 82.2429 67.4465H80.5694C80.5264 67.4465 80.506 67.4691 80.506 67.5098V70.287C80.506 70.4023 80.4518 70.4589 80.3432 70.4589H79.4567C79.3413 70.4589 79.2848 70.4023 79.2848 70.287V63.24C79.2848 63.1269 79.3413 63.0681 79.4567 63.0681H82.3062ZM82.1344 66.4514C82.4894 66.4514 82.7766 66.3474 82.9938 66.1348C83.2109 65.9244 83.3194 65.6463 83.3194 65.3025C83.3194 64.9542 83.2109 64.6693 82.9938 64.4522C82.7766 64.2351 82.4894 64.1265 82.1344 64.1265H80.5694C80.5264 64.1265 80.506 64.1491 80.506 64.1898V66.3881C80.506 66.431 80.5264 66.4514 80.5694 66.4514H82.1344Z" fill="black"/>
<path d="M91.3685 63.0681C91.814 63.0681 92.2053 63.1631 92.5445 63.3485C92.8815 63.5294 93.1416 63.7895 93.3225 64.1265C93.5079 64.4589 93.6029 64.8412 93.6029 65.2754C93.6029 65.7051 93.5057 66.085 93.3134 66.4152C93.1257 66.7409 92.8566 66.9942 92.5083 67.1751C92.1646 67.356 91.762 67.4465 91.3052 67.4465H89.6316C89.5886 67.4465 89.5683 67.4691 89.5683 67.5098V70.287C89.5683 70.4023 89.514 70.4589 89.4055 70.4589H88.5189C88.4036 70.4589 88.347 70.4023 88.347 70.287V63.24C88.347 63.1269 88.4036 63.0681 88.5189 63.0681H91.3685ZM91.1966 66.4514C91.5517 66.4514 91.8389 66.3474 92.056 66.1348C92.2731 65.9244 92.3817 65.6463 92.3817 65.3025C92.3817 64.9542 92.2731 64.6693 92.056 64.4522C91.8389 64.2351 91.5517 64.1265 91.1966 64.1265H89.6316C89.5886 64.1265 89.5683 64.1491 89.5683 64.1898V66.3881C89.5683 66.431 89.5886 66.4514 89.6316 66.4514H91.1966Z" fill="black"/>
<path d="M97.6445 70.4589C97.5292 70.4589 97.4727 70.4024 97.4727 70.287V63.249C97.4727 63.1405 97.5292 63.0862 97.6445 63.0862H98.5311C98.6396 63.0862 98.6939 63.1405 98.6939 63.249V69.3462C98.6939 69.3892 98.7143 69.4095 98.7572 69.4095H102.24C102.349 69.4095 102.403 69.4638 102.403 69.5724V70.287C102.403 70.4024 102.349 70.4589 102.24 70.4589H97.6445Z" fill="black"/>
<path d="M106.454 70.4589C106.339 70.4589 106.282 70.4024 106.282 70.287V63.249C106.282 63.1405 106.339 63.0862 106.454 63.0862H107.34C107.449 63.0862 107.503 63.1405 107.503 63.249V70.287C107.503 70.4024 107.449 70.4589 107.34 70.4589H106.454Z" fill="black"/>
<path d="M114.305 70.5403C113.774 70.5403 113.306 70.4385 112.903 70.2327C112.505 70.0292 112.198 69.7397 111.98 69.3643C111.763 68.9911 111.655 68.5592 111.655 68.0707V65.4654C111.655 64.9723 111.763 64.5404 111.98 64.1717C112.198 63.7986 112.505 63.5091 112.903 63.3033C113.306 63.0998 113.774 62.9957 114.305 62.9957C114.823 62.9957 115.282 63.0952 115.68 63.2943C116.083 63.4887 116.395 63.7647 116.612 64.1265C116.829 64.4838 116.938 64.8954 116.938 65.3658C116.938 65.4382 116.884 65.4812 116.775 65.4925L115.879 65.5468H115.843C115.757 65.5468 115.717 65.5287 115.717 65.4925V65.4292C115.717 65.0198 115.585 64.6874 115.328 64.4341C115.074 64.1808 114.733 64.0541 114.305 64.0541C113.876 64.0541 113.53 64.1808 113.265 64.4341C113.005 64.6874 112.876 65.0198 112.876 65.4292V68.1159C112.876 68.5275 113.005 68.8577 113.265 69.111C113.53 69.3643 113.876 69.4909 114.305 69.4909C114.733 69.4909 115.074 69.3688 115.328 69.12C115.585 68.8667 115.717 68.532 115.717 68.1159C115.717 68.0865 115.73 68.0594 115.762 68.0345C115.791 68.0051 115.83 67.996 115.879 68.0074L116.766 68.0435C116.879 68.0616 116.938 68.0797 116.938 68.0978V68.1521C116.938 68.6293 116.829 69.0477 116.612 69.4095C116.395 69.7714 116.083 70.0518 115.68 70.2508C115.282 70.4453 114.823 70.5403 114.305 70.5403Z" fill="black"/>
<path d="M125.649 70.4589C125.551 70.4589 125.488 70.4137 125.459 70.3232L125.133 69.2377C125.126 69.2015 125.101 69.1834 125.061 69.1834H122.301C122.258 69.1834 122.234 69.2015 122.229 69.2377L121.903 70.3232C121.872 70.4137 121.808 70.4589 121.713 70.4589H120.755C120.693 70.4589 120.65 70.4408 120.628 70.4046C120.603 70.3684 120.596 70.3232 120.61 70.2689L122.871 63.2219C122.894 63.1314 122.957 63.0862 123.061 63.0862H124.292C124.387 63.0862 124.45 63.1314 124.482 63.2219L126.743 70.2689C126.754 70.2825 126.761 70.3029 126.761 70.3323C126.761 70.4182 126.709 70.4589 126.607 70.4589H125.649ZM122.555 68.1521C122.548 68.2019 122.566 68.2245 122.609 68.2245H124.753C124.794 68.2245 124.812 68.2019 124.807 68.1521L123.722 64.5698C123.715 64.5404 123.704 64.5246 123.686 64.5246C123.667 64.5246 123.652 64.5404 123.64 64.5698L122.555 68.1521Z" fill="black"/>
<path d="M135.459 63.0862C135.572 63.0862 135.631 63.1405 135.631 63.249V63.9818C135.631 64.0903 135.572 64.1446 135.459 64.1446H133.578C133.535 64.1446 133.514 64.1672 133.514 64.2079V70.287C133.514 70.4024 133.456 70.4589 133.342 70.4589H132.456C132.347 70.4589 132.293 70.4024 132.293 70.287V64.2079C132.293 64.1672 132.27 64.1446 132.23 64.1446H130.411C130.303 64.1446 130.249 64.0903 130.249 63.9818V63.249C130.249 63.1405 130.303 63.0862 130.411 63.0862H135.459Z" fill="black"/>
<path d="M139.721 70.4589C139.606 70.4589 139.549 70.4024 139.549 70.287V63.249C139.549 63.1405 139.606 63.0862 139.721 63.0862H140.608C140.716 63.0862 140.771 63.1405 140.771 63.249V70.287C140.771 70.4024 140.716 70.4589 140.608 70.4589H139.721Z" fill="black"/>
<path d="M147.6 70.5674C147.075 70.5674 146.607 70.4611 146.198 70.2508C145.793 70.0337 145.478 69.7307 145.257 69.3372C145.033 68.9391 144.922 68.4845 144.922 67.9712V65.5649C144.922 65.0651 145.033 64.6195 145.257 64.226C145.485 63.8348 145.802 63.534 146.207 63.3214C146.609 63.1043 147.075 62.9957 147.6 62.9957C148.136 62.9957 148.606 63.1043 149.011 63.3214C149.414 63.534 149.728 63.8348 149.952 64.226C150.173 64.6195 150.286 65.0651 150.286 65.5649V67.9712C150.286 68.4845 150.173 68.9391 149.952 69.3372C149.728 69.7307 149.414 70.0337 149.011 70.2508C148.606 70.4611 148.136 70.5674 147.6 70.5674ZM147.6 69.509C148.045 69.509 148.4 69.3733 148.667 69.1019C148.932 68.826 149.065 68.4642 149.065 68.0164V65.5558C149.065 65.1035 148.932 64.7417 148.667 64.4703C148.4 64.1944 148.045 64.0541 147.6 64.0541C147.166 64.0541 146.813 64.1944 146.541 64.4703C146.274 64.7417 146.143 65.1035 146.143 65.5558V68.0164C146.143 68.4642 146.274 68.826 146.541 69.1019C146.813 69.3733 147.166 69.509 147.6 69.509Z" fill="black"/>
<path d="M154.611 70.4589C154.496 70.4589 154.439 70.4024 154.439 70.287V63.249C154.439 63.1405 154.496 63.0862 154.611 63.0862H155.452C155.547 63.0862 155.618 63.1224 155.661 63.1948L158.61 68.0255C158.628 68.0571 158.646 68.0684 158.664 68.0617C158.682 68.0503 158.691 68.0323 158.691 68.0074V63.249C158.691 63.1405 158.745 63.0862 158.854 63.0862H159.74C159.853 63.0862 159.912 63.1405 159.912 63.249V70.287C159.912 70.4024 159.853 70.4589 159.74 70.4589H158.881C158.777 70.4589 158.705 70.4205 158.664 70.3413L155.715 65.4835C155.701 65.4541 155.688 65.445 155.67 65.4563C155.651 65.4631 155.642 65.4789 155.642 65.5016L155.651 70.287C155.651 70.4024 155.593 70.4589 155.48 70.4589H154.611Z" fill="black"/>
</svg>
